<svg xmlns="http://www.w3.org/2000/svg" width="153.64000000000001" height="35" viewBox="0 0 153.64000000000001 35"><rect class="svg__rect" x="0" y="0" width="63.77" height="35" fill="#000000"/><rect class="svg__rect" x="61.77" y="0" width="91.87" height="35" fill="#FFFFFF"/><path class="svg__text" d="M17.33 22L14.22 22L14.22 13.47L17.14 13.47Q18.59 13.47 19.34 14.05Q20.10 14.63 20.10 15.78L20.10 15.78Q20.10 16.36 19.78 16.83Q19.47 17.30 18.86 17.56L18.86 17.56Q19.55 17.75 19.93 18.26Q20.31 18.78 20.31 19.51L20.31 19.51Q20.31 20.71 19.53 21.36Q18.76 22 17.33 22L17.33 22ZM15.70 18.15L15.70 20.82L17.35 20.82Q18.04 20.82 18.44 20.47Q18.83 20.13 18.83 19.51L18.83 19.51Q18.83 18.18 17.47 18.15L17.47 18.15L15.70 18.15ZM15.70 14.66L15.70 17.06L17.15 17.06Q17.84 17.06 18.23 16.75Q18.62 16.43 18.62 15.86L18.62 15.86Q18.62 15.23 18.26 14.95Q17.90 14.66 17.14 14.66L17.14 14.66L15.70 14.66ZM30.35 22L24.78 22L24.78 13.47L30.31 13.47L30.31 14.66L26.26 14.66L26.26 17.02L29.76 17.02L29.76 18.19L26.26 18.19L26.26 20.82L30.35 20.82L30.35 22ZM36.03 22L34.55 22L34.55 13.47L37.55 13.47Q39.03 13.47 39.83 14.13Q40.63 14.79 40.63 16.05L40.63 16.05Q40.63 16.90 40.22 17.48Q39.81 18.06 39.07 18.37L39.07 18.37L40.98 21.92L40.98 22L39.39 22L37.68 18.71L36.03 18.71L36.03 22ZM36.03 14.66L36.03 17.52L37.56 17.52Q38.31 17.52 38.73 17.15Q39.15 16.77 39.15 16.11L39.15 16.11Q39.15 15.43 38.76 15.05Q38.37 14.68 37.60 14.66L37.60 14.66L36.03 14.66ZM44.42 19.57L44.42 19.57L45.90 19.57Q45.90 20.25 46.24 20.59Q46.57 20.93 47.21 20.93L47.21 20.93Q47.81 20.93 48.16 20.54Q48.52 20.14 48.52 19.45L48.52 19.45L48.52 13.47L49.99 13.47L49.99 19.45Q49.99 20.68 49.23 21.40Q48.47 22.12 47.21 22.12L47.21 22.12Q45.88 22.12 45.15 21.44Q44.42 20.77 44.42 19.57Z" fill="#FFFFFF"/><path class="svg__text" d="M75.53 17.80L75.53 17.80Q75.53 16.54 76.13 15.54Q76.73 14.55 77.79 13.99Q78.86 13.43 80.21 13.43L80.21 13.43Q81.38 13.43 82.32 13.83Q83.26 14.22 83.88 14.97L83.88 14.97L82.37 16.33Q81.52 15.40 80.35 15.40L80.35 15.40Q80.33 15.40 80.33 15.40L80.33 15.40Q79.25 15.40 78.59 16.06Q77.93 16.71 77.93 17.80L77.93 17.80Q77.93 18.50 78.23 19.04Q78.53 19.59 79.07 19.89Q79.61 20.20 80.31 20.20L80.31 20.20Q80.99 20.20 81.59 19.93L81.59 19.93L81.59 17.62L83.69 17.62L83.69 21.10Q82.97 21.61 82.03 21.89Q81.10 22.17 80.16 22.17L80.16 22.17Q78.84 22.17 77.78 21.61Q76.73 21.05 76.13 20.05Q75.53 19.06 75.53 17.80ZM91.06 22L88.68 22L88.68 13.60L91.06 13.60L91.06 22ZM98.02 15.48L95.44 15.48L95.44 13.60L102.96 13.60L102.96 15.48L100.40 15.48L100.40 22L98.02 22L98.02 15.48ZM109.71 22L107.33 22L107.33 13.60L109.71 13.60L109.71 16.76L112.95 16.76L112.95 13.60L115.33 13.60L115.33 22L112.95 22L112.95 18.72L109.71 18.72L109.71 22ZM120.42 18.26L120.42 18.26L120.42 13.60L122.80 13.60L122.80 18.19Q122.80 20.20 124.39 20.20L124.39 20.20Q125.97 20.20 125.97 18.19L125.97 18.19L125.97 13.60L128.32 13.60L128.32 18.26Q128.32 20.13 127.28 21.15Q126.24 22.17 124.37 22.17L124.37 22.17Q122.49 22.17 121.46 21.15Q120.42 20.13 120.42 18.26ZM137.94 22L133.40 22L133.40 13.60L137.70 13.60Q139.31 13.60 140.15 14.19Q140.99 14.79 140.99 15.79L140.99 15.79Q140.99 16.39 140.70 16.87Q140.40 17.34 139.86 17.62L139.86 17.62Q140.58 17.87 140.99 18.41Q141.40 18.94 141.40 19.70L141.40 19.70Q141.40 20.80 140.51 21.40Q139.62 22 137.94 22L137.94 22ZM135.76 18.58L135.76 20.28L137.75 20.28Q139.00 20.28 139.00 19.43L139.00 19.43Q139.00 18.58 137.75 18.58L137.75 18.58L135.76 18.58ZM135.76 15.31L135.76 16.94L137.39 16.94Q138.59 16.94 138.59 16.12L138.59 16.12Q138.59 15.31 137.39 15.31L137.39 15.31L135.76 15.31Z" fill="#000000" x="74.77000000000001"/></svg>