<svg xmlns="http://www.w3.org/2000/svg" width="149.27" height="35" viewBox="0 0 149.27 35"><rect class="svg__rect" x="0" y="0" width="59.4" height="35" fill="#000000"/><rect class="svg__rect" x="57.4" y="0" width="91.87" height="35" fill="#FFFFFF"/><path class="svg__text" d="M19.57 22L14.22 22L14.22 13.47L15.70 13.47L15.70 20.82L19.57 20.82L19.57 22ZM29.28 22L23.70 22L23.70 13.47L29.23 13.47L29.23 14.66L25.18 14.66L25.18 17.02L28.68 17.02L28.68 18.19L25.18 18.19L25.18 20.82L29.28 20.82L29.28 22ZM34.57 22L32.84 22L35.49 17.70L32.90 13.47L34.61 13.47L36.41 16.55L38.20 13.47L39.91 13.47L37.33 17.70L39.97 22L38.24 22L36.41 18.87L34.57 22ZM45.62 22L44.14 22L44.14 13.47L45.62 13.47L45.62 22Z" fill="#FFFFFF"/><path class="svg__text" d="M71.16 17.80L71.16 17.80Q71.16 16.54 71.76 15.54Q72.36 14.55 73.42 13.99Q74.49 13.43 75.84 13.43L75.84 13.43Q77.01 13.43 77.95 13.83Q78.89 14.22 79.51 14.97L79.51 14.97L78.00 16.33Q77.15 15.40 75.98 15.40L75.98 15.40Q75.96 15.40 75.96 15.40L75.96 15.40Q74.88 15.40 74.22 16.06Q73.56 16.71 73.56 17.80L73.56 17.80Q73.56 18.50 73.86 19.04Q74.16 19.59 74.70 19.89Q75.24 20.20 75.94 20.20L75.94 20.20Q76.62 20.20 77.22 19.93L77.22 19.93L77.22 17.62L79.32 17.62L79.32 21.10Q78.60 21.61 77.66 21.89Q76.73 22.17 75.79 22.17L75.79 22.17Q74.47 22.17 73.41 21.61Q72.36 21.05 71.76 20.05Q71.16 19.06 71.16 17.80ZM86.69 22L84.31 22L84.31 13.60L86.69 13.60L86.69 22ZM93.65 15.48L91.07 15.48L91.07 13.60L98.59 13.60L98.59 15.48L96.03 15.48L96.03 22L93.65 22L93.65 15.48ZM105.34 22L102.96 22L102.96 13.60L105.34 13.60L105.34 16.76L108.58 16.76L108.58 13.60L110.96 13.60L110.96 22L108.58 22L108.58 18.72L105.34 18.72L105.34 22ZM116.05 18.26L116.05 18.26L116.05 13.60L118.43 13.60L118.43 18.19Q118.43 20.20 120.02 20.20L120.02 20.20Q121.60 20.20 121.60 18.19L121.60 18.19L121.60 13.60L123.95 13.60L123.95 18.26Q123.95 20.13 122.91 21.15Q121.87 22.17 120.00 22.17L120.00 22.17Q118.12 22.17 117.09 21.15Q116.05 20.13 116.05 18.26ZM133.57 22L129.03 22L129.03 13.60L133.33 13.60Q134.94 13.60 135.78 14.19Q136.62 14.79 136.62 15.79L136.62 15.79Q136.62 16.39 136.33 16.87Q136.03 17.34 135.49 17.62L135.49 17.62Q136.21 17.87 136.62 18.41Q137.03 18.94 137.03 19.70L137.03 19.70Q137.03 20.80 136.14 21.40Q135.25 22 133.57 22L133.57 22ZM131.39 18.58L131.39 20.28L133.38 20.28Q134.63 20.28 134.63 19.43L134.63 19.43Q134.63 18.58 133.38 18.58L133.38 18.58L131.39 18.58ZM131.39 15.31L131.39 16.94L133.02 16.94Q134.22 16.94 134.22 16.12L134.22 16.12Q134.22 15.31 133.02 15.31L133.02 15.31L131.39 15.31Z" fill="#000000" x="70.4"/></svg>