<svg xmlns="http://www.w3.org/2000/svg" width="158.88" height="35" viewBox="0 0 158.88 35"><rect class="svg__rect" x="0" y="0" width="69.00999999999999" height="35" fill="#000000"/><rect class="svg__rect" x="67.00999999999999" y="0" width="91.86999999999999" height="35" fill="#FFFFFF"/><path class="svg__text" d="M19.80 22L14.22 22L14.22 13.47L19.75 13.47L19.75 14.66L15.70 14.66L15.70 17.02L19.20 17.02L19.20 18.19L15.70 18.19L15.70 20.82L19.80 20.82L19.80 22ZM25.47 22L23.99 22L23.99 13.47L25.91 13.47L28.37 20.01L30.83 13.47L32.74 13.47L32.74 22L31.27 22L31.27 19.19L31.41 15.43L28.89 22L27.83 22L25.32 15.43L25.47 19.19L25.47 22ZM38.26 22L36.72 22L39.95 13.47L41.28 13.47L44.50 22L42.96 22L42.26 20.01L38.96 20.01L38.26 22ZM40.61 15.28L39.37 18.82L41.84 18.82L40.61 15.28ZM49.94 22L48.46 22L48.46 13.47L49.94 13.47L53.76 19.54L53.76 13.47L55.23 13.47L55.23 22L53.74 22L49.94 15.95L49.94 22Z" fill="#FFFFFF"/><path class="svg__text" d="M80.77 17.80L80.77 17.80Q80.77 16.54 81.37 15.54Q81.97 14.55 83.03 13.99Q84.10 13.43 85.45 13.43L85.45 13.43Q86.62 13.43 87.56 13.83Q88.50 14.22 89.12 14.97L89.12 14.97L87.61 16.33Q86.76 15.40 85.59 15.40L85.59 15.40Q85.57 15.40 85.57 15.40L85.57 15.40Q84.49 15.40 83.83 16.06Q83.17 16.71 83.17 17.80L83.17 17.80Q83.17 18.50 83.47 19.04Q83.77 19.59 84.31 19.89Q84.85 20.20 85.55 20.20L85.55 20.20Q86.23 20.20 86.83 19.93L86.83 19.93L86.83 17.62L88.93 17.62L88.93 21.10Q88.21 21.61 87.27 21.89Q86.34 22.17 85.40 22.17L85.40 22.17Q84.08 22.17 83.02 21.61Q81.97 21.05 81.37 20.05Q80.77 19.06 80.77 17.80ZM96.30 22L93.92 22L93.92 13.60L96.30 13.60L96.30 22ZM103.26 15.48L100.68 15.48L100.68 13.60L108.20 13.60L108.20 15.48L105.64 15.48L105.64 22L103.26 22L103.26 15.48ZM114.95 22L112.57 22L112.57 13.60L114.95 13.60L114.95 16.76L118.19 16.76L118.19 13.60L120.57 13.60L120.57 22L118.19 22L118.19 18.72L114.95 18.72L114.95 22ZM125.66 18.26L125.66 18.26L125.66 13.60L128.04 13.60L128.04 18.19Q128.04 20.20 129.63 20.20L129.63 20.20Q131.21 20.20 131.21 18.19L131.21 18.19L131.21 13.60L133.56 13.60L133.56 18.26Q133.56 20.13 132.52 21.15Q131.48 22.17 129.61 22.17L129.61 22.17Q127.73 22.17 126.70 21.15Q125.66 20.13 125.66 18.26ZM143.18 22L138.64 22L138.64 13.60L142.94 13.60Q144.55 13.60 145.39 14.19Q146.23 14.79 146.23 15.79L146.23 15.79Q146.23 16.39 145.94 16.87Q145.64 17.34 145.10 17.62L145.10 17.62Q145.82 17.87 146.23 18.41Q146.64 18.94 146.64 19.70L146.64 19.70Q146.64 20.80 145.75 21.40Q144.86 22 143.18 22L143.18 22ZM141.00 18.58L141.00 20.28L142.99 20.28Q144.24 20.28 144.24 19.43L144.24 19.43Q144.24 18.58 142.99 18.58L142.99 18.58L141.00 18.58ZM141.00 15.31L141.00 16.94L142.63 16.94Q143.83 16.94 143.83 16.12L143.83 16.12Q143.83 15.31 142.63 15.31L142.63 15.31L141.00 15.31Z" fill="#000000" x="80.00999999999999"/></svg>