<svg xmlns="http://www.w3.org/2000/svg" width="333.39" height="35" viewBox="0 0 333.39 35"><rect class="svg__rect" x="0" y="0" width="95.99" height="35" fill="#31C4F3"/><rect class="svg__rect" x="93.99" y="0" width="239.39999999999998" height="35" fill="#389AD5"/><path class="svg__text" d="M15.69 22L14.22 22L14.22 13.47L16.14 13.47L18.60 20.01L21.06 13.47L22.97 13.47L22.97 22L21.49 22L21.49 19.19L21.64 15.43L19.12 22L18.06 22L15.55 15.43L15.69 19.19L15.69 22ZM28.49 22L26.95 22L30.17 13.47L31.50 13.47L34.73 22L33.18 22L32.49 20.01L29.18 20.01L28.49 22ZM30.83 15.28L29.60 18.82L32.07 18.82L30.83 15.28ZM41.14 22L38.69 22L38.69 13.47L41.21 13.47Q42.34 13.47 43.21 13.97Q44.09 14.48 44.57 15.40Q45.05 16.33 45.05 17.52L45.05 17.52L45.05 17.95Q45.05 19.16 44.57 20.08Q44.08 21.00 43.19 21.50Q42.30 22 41.14 22L41.14 22ZM40.17 14.66L40.17 20.82L41.14 20.82Q42.30 20.82 42.93 20.09Q43.55 19.36 43.56 17.99L43.56 17.99L43.56 17.52Q43.56 16.13 42.96 15.40Q42.35 14.66 41.21 14.66L41.21 14.66L40.17 14.66ZM55.09 22L49.51 22L49.51 13.47L55.05 13.47L55.05 14.66L51.00 14.66L51.00 17.02L54.50 17.02L54.50 18.19L51.00 18.19L51.00 20.82L55.09 20.82L55.09 22ZM68.38 22L65.26 22L65.26 13.47L68.19 13.47Q69.64 13.47 70.39 14.05Q71.15 14.63 71.15 15.78L71.15 15.78Q71.15 16.36 70.83 16.83Q70.51 17.30 69.90 17.56L69.90 17.56Q70.60 17.75 70.97 18.26Q71.35 18.78 71.35 19.51L71.35 19.51Q71.35 20.71 70.58 21.36Q69.81 22 68.38 22L68.38 22ZM66.75 18.15L66.75 20.82L68.39 20.82Q69.09 20.82 69.48 20.47Q69.88 20.13 69.88 19.51L69.88 19.51Q69.88 18.18 68.52 18.15L68.52 18.15L66.75 18.15ZM66.75 14.66L66.75 17.06L68.20 17.06Q68.89 17.06 69.28 16.75Q69.67 16.43 69.67 15.86L69.67 15.86Q69.67 15.23 69.31 14.95Q68.95 14.66 68.19 14.66L68.19 14.66L66.75 14.66ZM77.86 18.86L75.00 13.47L76.64 13.47L78.61 17.51L80.57 13.47L82.21 13.47L79.35 18.86L79.35 22L77.86 22L77.86 18.86Z" fill="#FFFFFF"/><path class="svg__text" d="M110.56 22L108.18 22L108.18 13.60L112.02 13.60Q113.16 13.60 114.00 13.98Q114.84 14.35 115.30 15.06Q115.75 15.76 115.75 16.71L115.75 16.71Q115.75 17.62 115.33 18.30Q114.90 18.98 114.11 19.36L114.11 19.36L115.92 22L113.38 22L111.85 19.77L110.56 19.77L110.56 22ZM110.56 15.47L110.56 17.93L111.88 17.93Q112.61 17.93 112.98 17.61Q113.35 17.29 113.35 16.71L113.35 16.71Q113.35 16.12 112.98 15.79Q112.61 15.47 111.88 15.47L111.88 15.47L110.56 15.47ZM121.96 22L119.53 22L123.24 13.60L125.59 13.60L129.30 22L126.83 22L126.17 20.37L122.62 20.37L121.96 22ZM124.40 15.93L123.31 18.61L125.47 18.61L124.40 15.93ZM132.38 20.93L132.38 20.93L133.67 19.40Q134.34 20.27 135.11 20.27L135.11 20.27Q135.12 20.27 135.13 20.27L135.13 20.27Q135.64 20.27 135.91 19.96Q136.18 19.65 136.18 19.05L136.18 19.05L136.18 15.44L133.28 15.44L133.28 13.60L138.54 13.60L138.54 18.91Q138.54 20.54 137.71 21.36Q136.89 22.17 135.30 22.17L135.30 22.17Q134.37 22.17 133.61 21.85Q132.86 21.53 132.38 20.93ZM143.12 20.75L143.12 20.75Q143.12 20.15 143.50 19.78Q143.88 19.41 144.49 19.41L144.49 19.41Q145.07 19.41 145.46 19.78Q145.84 20.15 145.84 20.75L145.84 20.75Q145.84 21.03 145.77 21.30Q145.70 21.58 145.45 22.13L145.45 22.13L144.69 23.89L143.26 23.89L143.83 21.93Q143.49 21.77 143.30 21.47Q143.12 21.16 143.12 20.75ZM163.86 22L157.47 22L157.47 13.60L159.85 13.60L159.85 20.11L163.86 20.11L163.86 22ZM175.02 22L168.28 22L168.28 13.60L174.87 13.60L174.87 15.44L170.63 15.44L170.63 16.85L174.37 16.85L174.37 18.63L170.63 18.63L170.63 20.17L175.02 20.17L175.02 22ZM181.68 22L178.97 22L182.02 17.75L179.09 13.60L181.77 13.60L183.45 16.02L185.11 13.60L187.68 13.60L184.75 17.66L187.87 22L185.13 22L183.39 19.40L181.68 22ZM194.53 22L192.15 22L192.15 13.60L194.53 13.60L194.53 22ZM199.20 20.75L199.20 20.75Q199.20 20.15 199.59 19.78Q199.97 19.41 200.57 19.41L200.57 19.41Q201.16 19.41 201.54 19.78Q201.93 20.15 201.93 20.75L201.93 20.75Q201.93 21.03 201.86 21.30Q201.79 21.58 201.54 22.13L201.54 22.13L200.78 23.89L199.35 23.89L199.91 21.93Q199.58 21.77 199.39 21.47Q199.20 21.16 199.20 20.75ZM218.10 22L213.56 22L213.56 13.60L217.86 13.60Q219.47 13.60 220.31 14.19Q221.15 14.79 221.15 15.79L221.15 15.79Q221.15 16.39 220.85 16.87Q220.55 17.34 220.02 17.62L220.02 17.62Q220.74 17.87 221.14 18.41Q221.55 18.94 221.55 19.70L221.55 19.70Q221.55 20.80 220.66 21.40Q219.78 22 218.10 22L218.10 22ZM215.91 18.58L215.91 20.28L217.91 20.28Q219.15 20.28 219.15 19.43L219.15 19.43Q219.15 18.58 217.91 18.58L217.91 18.58L215.91 18.58ZM215.91 15.31L215.91 16.94L217.54 16.94Q218.74 16.94 218.74 16.12L218.74 16.12Q218.74 15.31 217.54 15.31L217.54 15.31L215.91 15.31ZM233.01 22L226.27 22L226.27 13.60L232.86 13.60L232.86 15.44L228.62 15.44L228.62 16.85L232.36 16.85L232.36 18.63L228.62 18.63L228.62 20.17L233.01 20.17L233.01 22ZM240.20 22L237.82 22L237.82 13.60L241.66 13.60Q242.80 13.60 243.64 13.98Q244.48 14.35 244.94 15.06Q245.39 15.76 245.39 16.71L245.39 16.71Q245.39 17.62 244.97 18.30Q244.54 18.98 243.75 19.36L243.75 19.36L245.56 22L243.01 22L241.49 19.77L240.20 19.77L240.20 22ZM240.20 15.47L240.20 17.93L241.51 17.93Q242.25 17.93 242.62 17.61Q242.99 17.29 242.99 16.71L242.99 16.71Q242.99 16.12 242.62 15.79Q242.25 15.47 241.51 15.47L241.51 15.47L240.20 15.47ZM249.10 20.93L249.10 20.93L250.40 19.40Q251.06 20.27 251.84 20.27L251.84 20.27Q251.84 20.27 251.85 20.27L251.85 20.27Q252.37 20.27 252.63 19.96Q252.90 19.65 252.90 19.05L252.90 19.05L252.90 15.44L250.00 15.44L250.00 13.60L255.26 13.60L255.26 18.91Q255.26 20.54 254.44 21.36Q253.61 22.17 252.02 22.17L252.02 22.17Q251.09 22.17 250.34 21.85Q249.58 21.53 249.10 20.93ZM259.84 20.75L259.84 20.75Q259.84 20.15 260.23 19.78Q260.61 19.41 261.21 19.41L261.21 19.41Q261.80 19.41 262.18 19.78Q262.57 20.15 262.57 20.75L262.57 20.75Q262.57 21.03 262.50 21.30Q262.43 21.58 262.17 22.13L262.17 22.13L261.42 23.89L259.99 23.89L260.55 21.93Q260.22 21.77 260.03 21.47Q259.84 21.16 259.84 20.75ZM280.94 22L274.20 22L274.20 13.60L280.79 13.60L280.79 15.44L276.55 15.44L276.55 16.85L280.29 16.85L280.29 18.63L276.55 18.63L276.55 20.17L280.94 20.17L280.94 22ZM287.94 22L285.75 22L285.75 13.60L287.70 13.60L290.66 18.45L293.54 13.60L295.49 13.60L295.51 22L293.33 22L293.31 17.55L291.15 21.17L290.09 21.17L287.94 17.67L287.94 22ZM302.09 22L299.67 22L303.38 13.60L305.72 13.60L309.44 22L306.97 22L306.31 20.37L302.76 20.37L302.09 22ZM304.53 15.93L303.45 18.61L305.61 18.61L304.53 15.93ZM315.92 22L313.59 22L313.59 13.60L315.55 13.60L319.26 18.07L319.26 13.60L321.58 13.60L321.58 22L319.63 22L315.92 17.52L315.92 22Z" fill="#FFFFFF" x="106.99"/></svg>