<svg xmlns="http://www.w3.org/2000/svg" width="185.7" height="35" viewBox="0 0 185.7 35"><rect class="svg__rect" x="0" y="0" width="95.83" height="35" fill="#000000"/><rect class="svg__rect" x="93.83" y="0" width="91.87" height="35" fill="#FFFFFF"/><path class="svg__text" d="M15.70 22L14.22 22L14.22 13.47L17.22 13.47Q18.69 13.47 19.50 14.13Q20.30 14.79 20.30 16.05L20.30 16.05Q20.30 16.90 19.89 17.48Q19.47 18.06 18.73 18.37L18.73 18.37L20.65 21.92L20.65 22L19.06 22L17.35 18.71L15.70 18.71L15.70 22ZM15.70 14.66L15.70 17.52L17.22 17.52Q17.97 17.52 18.39 17.15Q18.82 16.77 18.82 16.11L18.82 16.11Q18.82 15.43 18.43 15.05Q18.04 14.68 17.26 14.66L17.26 14.66L15.70 14.66ZM25.47 22L23.93 22L27.15 13.47L28.48 13.47L31.71 22L30.17 22L29.47 20.01L26.16 20.01L25.47 22ZM27.82 15.28L26.58 18.82L29.05 18.82L27.82 15.28ZM35.06 19.57L35.06 19.57L36.54 19.57Q36.54 20.25 36.88 20.59Q37.22 20.93 37.85 20.93L37.85 20.93Q38.45 20.93 38.81 20.54Q39.16 20.14 39.16 19.45L39.16 19.45L39.16 13.47L40.64 13.47L40.64 19.45Q40.64 20.68 39.87 21.40Q39.11 22.12 37.85 22.12L37.85 22.12Q36.52 22.12 35.79 21.44Q35.06 20.77 35.06 19.57ZM47.62 22L44.56 13.47L46.18 13.47L48.32 20.14L50.49 13.47L52.12 13.47L49.05 22L47.62 22ZM61.65 22L56.07 22L56.07 13.47L61.61 13.47L61.61 14.66L57.55 14.66L57.55 17.02L61.06 17.02L61.06 18.19L57.55 18.19L57.55 20.82L61.65 20.82L61.65 22ZM71.42 22L65.84 22L65.84 13.47L71.38 13.47L71.38 14.66L67.33 14.66L67.33 17.02L70.83 17.02L70.83 18.19L67.33 18.19L67.33 20.82L71.42 20.82L71.42 22ZM77.10 22L75.62 22L75.62 13.47L78.62 13.47Q80.09 13.47 80.90 14.13Q81.70 14.79 81.70 16.05L81.70 16.05Q81.70 16.90 81.29 17.48Q80.87 18.06 80.14 18.37L80.14 18.37L82.05 21.92L82.05 22L80.46 22L78.75 18.71L77.10 18.71L77.10 22ZM77.10 14.66L77.10 17.52L78.62 17.52Q79.37 17.52 79.80 17.15Q80.22 16.77 80.22 16.11L80.22 16.11Q80.22 15.43 79.83 15.05Q79.44 14.68 78.66 14.66L78.66 14.66L77.10 14.66Z" fill="#FFFFFF"/><path class="svg__text" d="M107.59 17.80L107.59 17.80Q107.59 16.54 108.19 15.54Q108.79 14.55 109.85 13.99Q110.92 13.43 112.27 13.43L112.27 13.43Q113.44 13.43 114.38 13.83Q115.32 14.22 115.94 14.97L115.94 14.97L114.43 16.33Q113.58 15.40 112.41 15.40L112.41 15.40Q112.39 15.40 112.39 15.40L112.39 15.40Q111.31 15.40 110.65 16.06Q109.99 16.71 109.99 17.80L109.99 17.80Q109.99 18.50 110.29 19.04Q110.59 19.59 111.13 19.89Q111.67 20.20 112.37 20.20L112.37 20.20Q113.05 20.20 113.65 19.93L113.65 19.93L113.65 17.62L115.75 17.62L115.75 21.10Q115.03 21.61 114.09 21.89Q113.16 22.17 112.22 22.17L112.22 22.17Q110.90 22.17 109.84 21.61Q108.79 21.05 108.19 20.05Q107.59 19.06 107.59 17.80ZM123.12 22L120.74 22L120.74 13.60L123.12 13.60L123.12 22ZM130.08 15.48L127.50 15.48L127.50 13.60L135.02 13.60L135.02 15.48L132.46 15.48L132.46 22L130.08 22L130.08 15.48ZM141.77 22L139.39 22L139.39 13.60L141.77 13.60L141.77 16.76L145.01 16.76L145.01 13.60L147.39 13.60L147.39 22L145.01 22L145.01 18.72L141.77 18.72L141.77 22ZM152.48 18.26L152.48 18.26L152.48 13.60L154.86 13.60L154.86 18.19Q154.86 20.20 156.45 20.20L156.45 20.20Q158.03 20.20 158.03 18.19L158.03 18.19L158.03 13.60L160.38 13.60L160.38 18.26Q160.38 20.13 159.34 21.15Q158.30 22.17 156.43 22.17L156.43 22.17Q154.55 22.17 153.52 21.15Q152.48 20.13 152.48 18.26ZM170.00 22L165.46 22L165.46 13.60L169.76 13.60Q171.37 13.60 172.21 14.19Q173.05 14.79 173.05 15.79L173.05 15.79Q173.05 16.39 172.76 16.87Q172.46 17.34 171.92 17.62L171.92 17.62Q172.64 17.87 173.05 18.41Q173.46 18.94 173.46 19.70L173.46 19.70Q173.46 20.80 172.57 21.40Q171.68 22 170.00 22L170.00 22ZM167.82 18.58L167.82 20.28L169.81 20.28Q171.06 20.28 171.06 19.43L171.06 19.43Q171.06 18.58 169.81 18.58L169.81 18.58L167.82 18.58ZM167.82 15.31L167.82 16.94L169.45 16.94Q170.65 16.94 170.65 16.12L170.65 16.12Q170.65 15.31 169.45 15.31L169.45 15.31L167.82 15.31Z" fill="#000000" x="106.83"/></svg>